<svg xmlns="http://www.w3.org/2000/svg" version="1.1" xmlns:xlink="http://www.w3.org/1999/xlink" xmlns:svgjs="http://svgjs.com/svgjs" width="189.12" height="152.63"><svg id="SvgjsSvg1001" xmlns="http://www.w3.org/2000/svg" viewBox="0 0 189.12 152.63"><defs><style>.cls-1{fill:#0281d4;}</style></defs><g id="SvgjsG1000"><path class="cls-1" d="M131.01,32.6c17.74,.56,35.47,.12,53.21,.68,1.6,.05,3.51-.05,4.36-1.41,.45-.72,.47-1.63,.47-2.48,.03-7.85,.05-17.71,.08-25.56,0-.5-.03-1.07-.41-1.39-.28-.24-.69-.27-1.06-.28-27.22-1.16-57.77,.24-84.99-.92-1.23-.05-2.63-.05-3.49,.84-.76,.77-.84,1.96-.88,3.04-2.52,32.58-.85,65.33-1.69,97.08-9.26-12.79-17.84-24.11-27.1-36.9-.85-1.18-2.08-2.52-3.64-1.54-.28,.18-.52,.42-.73,.69l-29.1,38.31c-.77-32.97,1-65.92-1.94-98.77-.11-1.23-.3-2.61-1.28-3.36C32.04,.04,31,.01,30.03,.01,22.3,0,10.95,0,3.22,0,1.54,0,.14,1.38,.13,3.06c-.48,47.02,.42,94.05,2.73,141.02,.14,2.9,.56,6.28,3.06,7.77,1.49,.89,3.35,.83,5.08,.74,7.29-.38,14.58,.25,21.87-.13,1.67-.09,3.4-.19,4.86-.99,1.35-.74,2.32-1.99,3.25-3.21,8.58-11.21,17.16-23.41,25.75-34.62,7.58,9.99,14.43,21.54,20.46,32.53,2.13,3.89,7.37,4.49,11.8,4.64,6.69,.22,13.38-.57,20.07-.35,2.99,.1,7.06-.76,7.07-3.76,.08-19.74,.16-41.49,.23-61.23,.01-2.75-.2-6.31,2.54-6.15,11.48,.69,24.84,.02,36.15,.36,.87,.03,1.81-.3,2.37-.97,.54-.65,.58-1.57,.59-2.41,.05-6.33,.66-9.6,.71-15.92,.02-2.57-.87-5.86-3.44-5.9-10.53-.15-25.7-1.01-33.62-.69-1.1,.08-2.33,.12-3.14-.62-.84-.76-.89-2.04-.89-3.17,.02-3.88,.04-7.76,.05-11.65,.01-2.48,.84-5.81,3.32-5.73Z"></path></g></svg><style>@media (prefers-color-scheme: light) { :root { filter: none; } }
@media (prefers-color-scheme: dark) { :root { filter: contrast(0.3846153846153846) brightness(4.5); } }
</style></svg>