<?xml version="1.0" standalone="no"?>
<!DOCTYPE svg PUBLIC "-//W3C//DTD SVG 20010904//EN"
 "http://www.w3.org/TR/2001/REC-SVG-20010904/DTD/svg10.dtd">
<svg version="1.0" xmlns="http://www.w3.org/2000/svg"
 width="756.000000pt" height="756.000000pt" viewBox="0 0 756.000000 756.000000"
 preserveAspectRatio="xMidYMid meet">
<metadata>
Created by potrace 1.14, written by Peter Selinger 2001-2017
</metadata>
<g transform="translate(0.000000,756.000000) scale(0.100000,-0.100000)"
fill="#000000" stroke="none">
<path d="M63 6809 c-66 -42 -62 34 -58 -1340 3 -684 7 -1341 9 -1459 18 -797
40 -1563 61 -2060 3 -63 7 -169 10 -235 2 -66 7 -167 9 -225 3 -58 8 -159 11
-225 12 -263 19 -335 35 -366 6 -10 8 -19 5 -19 -6 0 43 -79 60 -96 6 -6 27
-20 45 -30 33 -17 68 -19 540 -20 278 -1 537 3 576 7 132 16 176 42 260 151
25 31 50 63 57 70 6 8 17 21 22 30 6 9 46 64 90 122 44 57 87 114 95 126 14
21 45 63 63 85 4 6 25 35 47 65 22 30 45 61 52 69 6 8 40 54 75 102 35 48 106
146 158 216 52 70 103 139 113 152 20 28 187 251 199 266 4 6 21 27 36 48 16
21 33 37 37 35 14 -5 187 -249 305 -430 6 -8 22 -34 38 -57 58 -88 81 -126 80
-132 -1 -4 7 -15 17 -24 11 -10 20 -22 20 -27 0 -5 13 -29 30 -53 16 -24 30
-46 30 -49 0 -2 22 -41 50 -86 27 -45 50 -83 50 -86 0 -2 11 -21 23 -42 21
-33 55 -93 106 -187 9 -16 18 -32 21 -35 3 -3 17 -27 30 -54 52 -102 141 -162
285 -193 87 -18 285 -21 822 -10 312 6 370 16 427 73 33 33 52 89 34 100 -5 3
-5 10 -1 17 6 10 8 384 13 2098 1 450 4 495 42 536 20 21 26 22 157 17 271 -9
1389 -6 1408 4 45 24 56 49 58 130 1 43 5 84 9 90 3 6 2 13 -4 17 -6 4 -8 10
-6 14 5 7 9 57 22 291 14 243 10 311 -23 375 -20 38 -62 75 -88 76 -11 1 -72
2 -135 4 -63 2 -203 6 -310 10 -107 3 -271 8 -365 10 -93 2 -170 5 -170 5 0 6
-266 4 -282 -2 -13 -4 -23 -4 -23 1 0 4 -12 7 -27 5 -41 -4 -77 -6 -83 -4 -3
1 -20 3 -38 5 -38 3 -67 26 -80 64 -5 14 -9 161 -8 326 1 269 4 305 21 353 12
33 31 62 50 76 28 21 38 23 165 20 74 -1 135 -3 135 -4 0 0 300 -3 667 -5 367
-2 813 -6 990 -9 288 -4 327 -3 358 12 68 33 66 18 68 634 2 453 0 557 -11
572 -15 20 -38 22 -357 30 -74 2 -139 5 -145 6 -5 1 -14 1 -20 0 -25 -5 -197
0 -207 6 -7 4 -8 3 -4 -4 5 -9 0 -10 -16 -4 -16 6 -960 7 -1193 2 -5 0 -55 1
-110 3 -55 1 -110 -1 -123 -5 -13 -4 -21 -5 -19 0 4 6 -126 7 -143 1 -3 -1 -9
-1 -15 1 -5 1 -178 3 -385 5 -206 2 -469 6 -583 10 -199 5 -210 5 -242 -15
-42 -26 -52 -57 -60 -185 -3 -55 -7 -125 -10 -155 -10 -153 -20 -352 -32 -665
-3 -82 -7 -643 -9 -1245 -4 -1395 -7 -1750 -16 -1750 -4 0 -14 10 -23 23 -9
12 -34 47 -56 77 -21 30 -44 61 -51 69 -6 8 -27 36 -45 63 -19 27 -40 57 -48
66 -41 50 -175 235 -175 242 0 5 -4 10 -8 12 -5 2 -36 41 -71 88 -34 47 -71
96 -81 110 -10 14 -42 57 -72 97 -29 40 -84 116 -123 169 -38 53 -75 101 -80
108 -6 6 -28 35 -49 65 -21 30 -43 59 -48 65 -5 6 -48 65 -96 131 -86 117
-121 152 -152 149 -8 -1 -20 -2 -27 -3 -18 -2 -53 -39 -98 -101 -22 -30 -50
-66 -62 -80 -13 -14 -23 -30 -23 -37 0 -7 -4 -13 -8 -13 -5 0 -24 -21 -42 -47
-19 -27 -52 -71 -74 -99 -23 -28 -49 -62 -58 -75 -9 -13 -24 -33 -33 -44 -8
-11 -36 -47 -61 -80 -25 -33 -52 -68 -60 -78 -8 -10 -32 -42 -52 -70 -20 -29
-39 -54 -42 -57 -4 -3 -42 -52 -85 -110 -43 -58 -81 -107 -85 -110 -3 -3 -14
-18 -23 -33 -10 -16 -25 -36 -33 -45 -9 -9 -51 -64 -95 -122 -44 -58 -85 -112
-92 -120 -7 -9 -32 -42 -56 -75 -25 -33 -48 -62 -51 -65 -4 -3 -19 -24 -34
-48 -28 -45 -44 -53 -46 -24 0 9 -2 568 -4 1242 -4 1385 -12 1812 -41 2235 -2
33 -7 101 -10 150 -3 50 -8 118 -10 151 -15 206 -25 245 -75 273 -37 21 -43
21 -621 21 -569 0 -585 -1 -616 -21z"/>
</g>
</svg>
